<mxfile host="Electron" modified="2024-05-16T04:36:09.038Z" agent="Mozilla/5.0 (Windows NT 10.0; Win64; x64) AppleWebKit/537.36 (KHTML, like Gecko) draw.io/23.1.5 Chrome/120.0.6099.109 Electron/28.1.0 Safari/537.36" etag="f7CwqTZcnYmXxgegfVvI" version="23.1.5" type="device">
  <diagram name="Страница — 1" id="oEOQSKopyrp2IXTBuVKA">
    <mxGraphModel dx="1195" dy="703" grid="1" gridSize="10" guides="1" tooltips="1" connect="1" arrows="1" fold="1" page="1" pageScale="1" pageWidth="827" pageHeight="1169" math="0" shadow="0">
      <root>
        <mxCell id="0" />
        <mxCell id="1" parent="0" />
        <mxCell id="ZY_TjZo2YmvG1xR8UHAh-1" value="Searcher" style="html=1;dropTarget=0;whiteSpace=wrap;" vertex="1" parent="1">
          <mxGeometry x="430" y="445" width="350" height="270" as="geometry" />
        </mxCell>
        <mxCell id="ZY_TjZo2YmvG1xR8UHAh-5" value="PostgresDatabase" style="html=1;dropTarget=0;whiteSpace=wrap;" vertex="1" parent="1">
          <mxGeometry x="515" y="815" width="180" height="90" as="geometry" />
        </mxCell>
        <mxCell id="ZY_TjZo2YmvG1xR8UHAh-6" value="" style="shape=module;jettyWidth=8;jettyHeight=4;" vertex="1" parent="ZY_TjZo2YmvG1xR8UHAh-5">
          <mxGeometry x="1" width="20" height="20" relative="1" as="geometry">
            <mxPoint x="-27" y="7" as="offset" />
          </mxGeometry>
        </mxCell>
        <mxCell id="ZY_TjZo2YmvG1xR8UHAh-7" value="" style="html=1;rounded=0;" vertex="1" parent="1">
          <mxGeometry x="590" y="795" width="30" height="30" as="geometry" />
        </mxCell>
        <mxCell id="ZY_TjZo2YmvG1xR8UHAh-8" value="" style="endArrow=none;html=1;rounded=0;align=center;verticalAlign=top;endFill=0;labelBackgroundColor=none;endSize=2;" edge="1" parent="1" source="ZY_TjZo2YmvG1xR8UHAh-7" target="ZY_TjZo2YmvG1xR8UHAh-9">
          <mxGeometry relative="1" as="geometry" />
        </mxCell>
        <mxCell id="ZY_TjZo2YmvG1xR8UHAh-9" value="" style="ellipse;html=1;fontSize=11;align=center;fillColor=none;points=[];aspect=fixed;resizable=0;verticalAlign=bottom;labelPosition=center;verticalLabelPosition=top;flipH=1;" vertex="1" parent="1">
          <mxGeometry x="601" y="775" width="8" height="8" as="geometry" />
        </mxCell>
        <mxCell id="ZY_TjZo2YmvG1xR8UHAh-10" value="" style="html=1;rounded=0;" vertex="1" parent="1">
          <mxGeometry x="590" y="695" width="30" height="30" as="geometry" />
        </mxCell>
        <mxCell id="ZY_TjZo2YmvG1xR8UHAh-11" value="" style="endArrow=none;html=1;rounded=0;align=center;verticalAlign=top;endFill=0;labelBackgroundColor=none;endSize=2;" edge="1" parent="1" source="ZY_TjZo2YmvG1xR8UHAh-10">
          <mxGeometry relative="1" as="geometry">
            <mxPoint x="605" y="765" as="targetPoint" />
          </mxGeometry>
        </mxCell>
        <mxCell id="ZY_TjZo2YmvG1xR8UHAh-12" value="" style="shape=requiredInterface;html=1;fontSize=11;align=center;fillColor=none;points=[];aspect=fixed;resizable=0;verticalAlign=bottom;labelPosition=center;verticalLabelPosition=top;flipH=1;rotation=90;" vertex="1" parent="1">
          <mxGeometry x="602.5" y="765" width="5" height="10" as="geometry" />
        </mxCell>
        <mxCell id="ZY_TjZo2YmvG1xR8UHAh-16" value="TCP" style="text;html=1;strokeColor=none;fillColor=none;align=center;verticalAlign=middle;whiteSpace=wrap;rounded=0;" vertex="1" parent="1">
          <mxGeometry x="602.5" y="735" width="60" height="30" as="geometry" />
        </mxCell>
        <mxCell id="ZY_TjZo2YmvG1xR8UHAh-18" value="llibpqxx.so" style="html=1;dropTarget=0;whiteSpace=wrap;" vertex="1" parent="1">
          <mxGeometry x="70" y="410" width="180" height="90" as="geometry" />
        </mxCell>
        <mxCell id="ZY_TjZo2YmvG1xR8UHAh-19" value="" style="shape=module;jettyWidth=8;jettyHeight=4;" vertex="1" parent="ZY_TjZo2YmvG1xR8UHAh-18">
          <mxGeometry x="1" width="20" height="20" relative="1" as="geometry">
            <mxPoint x="-27" y="7" as="offset" />
          </mxGeometry>
        </mxCell>
        <mxCell id="ZY_TjZo2YmvG1xR8UHAh-22" value="yamlcpp.so" style="html=1;dropTarget=0;whiteSpace=wrap;" vertex="1" parent="1">
          <mxGeometry x="70" y="605" width="180" height="90" as="geometry" />
        </mxCell>
        <mxCell id="ZY_TjZo2YmvG1xR8UHAh-23" value="" style="shape=module;jettyWidth=8;jettyHeight=4;" vertex="1" parent="ZY_TjZo2YmvG1xR8UHAh-22">
          <mxGeometry x="1" width="20" height="20" relative="1" as="geometry">
            <mxPoint x="-27" y="7" as="offset" />
          </mxGeometry>
        </mxCell>
        <mxCell id="ZY_TjZo2YmvG1xR8UHAh-24" value="" style="endArrow=none;html=1;rounded=0;" edge="1" parent="1">
          <mxGeometry width="50" height="50" relative="1" as="geometry">
            <mxPoint x="320" y="880" as="sourcePoint" />
            <mxPoint x="320" y="410" as="targetPoint" />
          </mxGeometry>
        </mxCell>
        <mxCell id="ZY_TjZo2YmvG1xR8UHAh-25" value="" style="endArrow=classic;html=1;rounded=0;entryX=1.006;entryY=0.578;entryDx=0;entryDy=0;entryPerimeter=0;" edge="1" parent="1" target="ZY_TjZo2YmvG1xR8UHAh-18">
          <mxGeometry width="50" height="50" relative="1" as="geometry">
            <mxPoint x="320" y="460" as="sourcePoint" />
            <mxPoint x="490" y="355" as="targetPoint" />
          </mxGeometry>
        </mxCell>
        <mxCell id="ZY_TjZo2YmvG1xR8UHAh-27" value="" style="endArrow=classic;html=1;rounded=0;entryX=1;entryY=0.5;entryDx=0;entryDy=0;" edge="1" parent="1" target="ZY_TjZo2YmvG1xR8UHAh-22">
          <mxGeometry width="50" height="50" relative="1" as="geometry">
            <mxPoint x="320" y="650" as="sourcePoint" />
            <mxPoint x="290" y="865" as="targetPoint" />
          </mxGeometry>
        </mxCell>
        <mxCell id="ZY_TjZo2YmvG1xR8UHAh-28" value="Use" style="endArrow=open;endSize=12;dashed=1;html=1;rounded=0;exitX=-0.006;exitY=0.396;exitDx=0;exitDy=0;exitPerimeter=0;" edge="1" parent="1">
          <mxGeometry width="160" relative="1" as="geometry">
            <mxPoint x="430.0000000000001" y="605.0000000000001" as="sourcePoint" />
            <mxPoint x="322.1" y="608.08" as="targetPoint" />
          </mxGeometry>
        </mxCell>
        <mxCell id="ZY_TjZo2YmvG1xR8UHAh-31" value="Tqp.so" style="html=1;dropTarget=0;whiteSpace=wrap;" vertex="1" parent="1">
          <mxGeometry x="515" y="280" width="180" height="90" as="geometry" />
        </mxCell>
        <mxCell id="ZY_TjZo2YmvG1xR8UHAh-32" value="" style="shape=module;jettyWidth=8;jettyHeight=4;" vertex="1" parent="ZY_TjZo2YmvG1xR8UHAh-31">
          <mxGeometry x="1" width="20" height="20" relative="1" as="geometry">
            <mxPoint x="-27" y="7" as="offset" />
          </mxGeometry>
        </mxCell>
        <mxCell id="ZY_TjZo2YmvG1xR8UHAh-33" value="Use" style="endArrow=open;endSize=12;dashed=1;html=1;rounded=0;entryX=0.5;entryY=1;entryDx=0;entryDy=0;exitX=0.5;exitY=0;exitDx=0;exitDy=0;" edge="1" parent="1" source="ZY_TjZo2YmvG1xR8UHAh-1" target="ZY_TjZo2YmvG1xR8UHAh-31">
          <mxGeometry width="160" relative="1" as="geometry">
            <mxPoint x="615" y="455" as="sourcePoint" />
            <mxPoint x="510" y="360" as="targetPoint" />
          </mxGeometry>
        </mxCell>
        <mxCell id="ZY_TjZo2YmvG1xR8UHAh-37" value="ResultsCache" style="html=1;dropTarget=0;whiteSpace=wrap;" vertex="1" parent="1">
          <mxGeometry x="450" y="460" width="140" height="70" as="geometry" />
        </mxCell>
        <mxCell id="ZY_TjZo2YmvG1xR8UHAh-38" value="" style="shape=module;jettyWidth=8;jettyHeight=4;" vertex="1" parent="ZY_TjZo2YmvG1xR8UHAh-37">
          <mxGeometry x="1" width="20" height="20" relative="1" as="geometry">
            <mxPoint x="-27" y="7" as="offset" />
          </mxGeometry>
        </mxCell>
        <mxCell id="ZY_TjZo2YmvG1xR8UHAh-49" value="" style="html=1;rounded=0;" vertex="1" parent="1">
          <mxGeometry x="760" y="565" width="30" height="30" as="geometry" />
        </mxCell>
        <mxCell id="ZY_TjZo2YmvG1xR8UHAh-50" value="" style="endArrow=none;html=1;rounded=0;align=center;verticalAlign=top;endFill=0;labelBackgroundColor=none;endSize=2;exitX=1;exitY=0.5;exitDx=0;exitDy=0;" edge="1" parent="1" source="ZY_TjZo2YmvG1xR8UHAh-49">
          <mxGeometry relative="1" as="geometry">
            <mxPoint x="810" y="580" as="targetPoint" />
            <mxPoint x="615" y="735" as="sourcePoint" />
          </mxGeometry>
        </mxCell>
        <mxCell id="ZY_TjZo2YmvG1xR8UHAh-51" value="" style="shape=requiredInterface;html=1;fontSize=11;align=center;fillColor=none;points=[];aspect=fixed;resizable=0;verticalAlign=bottom;labelPosition=center;verticalLabelPosition=top;flipH=1;rotation=0;" vertex="1" parent="1">
          <mxGeometry x="810" y="575" width="5" height="10" as="geometry" />
        </mxCell>
        <mxCell id="ZY_TjZo2YmvG1xR8UHAh-52" value="API" style="text;html=1;strokeColor=none;fillColor=none;align=center;verticalAlign=middle;whiteSpace=wrap;rounded=0;" vertex="1" parent="1">
          <mxGeometry x="780" y="545" width="60" height="30" as="geometry" />
        </mxCell>
        <mxCell id="ZY_TjZo2YmvG1xR8UHAh-53" value="Drogon" style="html=1;dropTarget=0;whiteSpace=wrap;" vertex="1" parent="1">
          <mxGeometry x="70" y="765" width="180" height="90" as="geometry" />
        </mxCell>
        <mxCell id="ZY_TjZo2YmvG1xR8UHAh-54" value="" style="shape=module;jettyWidth=8;jettyHeight=4;" vertex="1" parent="ZY_TjZo2YmvG1xR8UHAh-53">
          <mxGeometry x="1" width="20" height="20" relative="1" as="geometry">
            <mxPoint x="-27" y="7" as="offset" />
          </mxGeometry>
        </mxCell>
        <mxCell id="ZY_TjZo2YmvG1xR8UHAh-55" value="" style="endArrow=classic;html=1;rounded=0;entryX=1;entryY=0.5;entryDx=0;entryDy=0;" edge="1" parent="1" target="ZY_TjZo2YmvG1xR8UHAh-53">
          <mxGeometry width="50" height="50" relative="1" as="geometry">
            <mxPoint x="320" y="810" as="sourcePoint" />
            <mxPoint x="480" y="810" as="targetPoint" />
          </mxGeometry>
        </mxCell>
      </root>
    </mxGraphModel>
  </diagram>
</mxfile>
